<svg width="580" height="400" xmlns="http://www.w3.org/2000/svg">
 <!-- Created with Method Draw - http://github.com/duopixel/Method-Draw/ -->
 <g>
  <title>background</title>
  <rect fill="#fff" id="canvas_background" height="402" width="582" y="-1" x="-1"/>
  <g display="none" overflow="visible" y="0" x="0" height="100%" width="100%" id="canvasGrid">
   <rect fill="url(#gridpattern)" stroke-width="0" y="0" x="0" height="100%" width="100%"/>
  </g>
 </g>
 <g>
  <title>Layer 1</title>
  <rect stroke="#ff007f" id="svg_1" height="30" width="292" y="118.453125" x="133.5" stroke-width="1.5" fill="#ff007f"/>
  <path stroke="#00ffff" id="svg_2" d="m153.279617,146.503264c-1.929983,-0.42507 -3.048077,-2.172627 -2.916191,-3.757953c-0.049408,-2.070732 0.180708,-4.249671 -1.011964,-6.153685c-0.679808,-1.421613 -1.837868,-2.676773 -2.321144,-4.158248c-0.601387,-2.298409 0.141454,-4.903423 2.379672,-6.446434c2.524182,-1.795731 6.555109,-2.029784 9.333733,-0.503522c1.959784,1.120765 3.373812,2.969293 3.32128,4.986472c0.229958,1.50728 -0.486555,2.925007 -1.329453,4.220759c-0.603902,1.043302 -1.309171,2.064225 -1.857305,3.11916c-0.144502,2.163008 -0.061627,4.345856 -0.453573,6.490259c-0.652909,1.661667 -3.113472,2.791435 -5.145056,2.203192l0,0.000001zm5.097372,-3.867495c-1.145391,-0.512591 -2.791311,-0.179329 -4.12266,-0.289682c-1.087536,0.180597 -3.019972,-0.37042 -3.598129,0.456129c1.322207,0.429422 2.876077,0.107521 4.283692,0.178567c1.126304,-0.089811 2.422141,0.085168 3.437096,-0.345014l0,0.000001zm-0.085781,-0.964547c0.168563,-1.302283 -2.311872,-0.637752 -3.319518,-0.831615c-1.333685,0.224123 -3.456124,-0.479742 -4.294906,0.520846c0.497037,1.005514 2.713689,0.298347 3.877693,0.521445c1.241293,-0.036519 2.529073,0.036937 3.73673,-0.210676l0.000001,0zm0.015443,-2.281714c0.327449,-2.536881 2.195721,-4.649156 3.277534,-6.969758c0.889456,-2.778427 -0.872086,-5.952651 -4.061339,-7.118916c-3.174412,-1.306195 -7.403757,-0.319444 -9.197722,2.240018c-1.728498,2.114182 -1.398627,4.986764 0.290764,7.042788c1.205423,1.796857 2.167164,3.816148 2.0105,5.907278c2.502175,0 5.004351,0 7.506528,0c0.057914,-0.367131 0.115809,-0.734287 0.173735,-1.101411zm-5.539399,-3.594073c-0.991372,-1.431134 -2.009089,-2.873296 -2.699432,-4.424294c0.620662,-0.667031 0.801216,-1.410033 0.994022,-2.193762c1.742013,-0.284087 -0.221738,1.648171 1.42297,1.691714c1.459929,0.527372 0.81948,-2.558974 2.032416,-1.446492c-0.870688,1.220941 1.710263,2.435546 1.804986,0.688933c-0.12512,-1.318775 1.559995,-1.071691 0.903004,0.124709c0.054226,0.615449 1.261149,0.791891 1.281813,1.28689c-0.868865,1.564706 -1.624094,3.180144 -2.652928,4.678084c-0.231579,-0.579961 0.91082,-2.033537 1.275862,-2.887011c0.704397,-0.737755 1.309693,-2.725945 -0.526626,-2.454934c-1.065227,1.379429 -2.498184,-0.869519 -3.541189,0.452457c-0.885403,0.219273 -2.277948,-1.273083 -2.534794,0.161846c0.666848,1.704327 2.05441,3.156847 2.780407,4.843581c-0.24635,-0.120589 -0.386628,-0.332151 -0.540511,-0.521721l0,0.000001zm-1.391499,-6.24615c-0.482079,-0.195339 0.203192,1.038462 -0.00001,0l0.00001,0zm2.881376,0.145729c-0.625789,-0.879289 -0.290168,1.066853 0,0zm2.792872,0c-0.625789,-0.879289 -0.290172,1.066853 0,0zm-13.002122,-6.497188c-1.106069,-0.931992 -2.328692,-1.806513 -3.290608,-2.833824c2.403077,1.651525 4.602574,3.511496 6.768209,5.376124c0.575072,0.656081 -1.00325,-0.612672 -1.297,-0.825344c-0.734996,-0.565145 -1.460364,-1.138881 -2.180601,-1.716956l0.000001,0zm17.079924,2.664662c1.869526,-1.933985 3.613837,-3.961495 5.629462,-5.792459c-0.337512,0.788322 -1.423992,1.731606 -2.107129,2.543505c-1.140835,1.178379 -2.207216,2.424298 -3.511789,3.48083c-0.162824,0.142889 -0.405962,-0.195554 -0.010526,-0.231875l-0.000016,0l-0.000001,0zm-4.049438,-1.834745c0.645937,-1.533926 1.582881,-2.994043 2.628173,-4.366873c-0.024294,0.761577 -1.132904,2.205019 -1.66577,3.149345c-0.301439,0.380006 -0.555695,0.986035 -0.962402,1.217528zm-8.271849,-1.967204c-0.449955,-0.544906 -1.80444,-1.813702 -1.551537,-1.986732c1.305898,1.202127 2.634098,2.442909 3.572191,3.864528c-0.798881,-0.508694 -1.373709,-1.243417 -2.020656,-1.877797l0.000001,0zm5.171315,-0.428847c-0.091064,-0.51174 0.191627,-2.954676 0.348675,-1.295872c0.000558,1.039318 0.131224,2.209335 -0.217216,3.155309c-0.14921,-0.608186 -0.113009,-1.241346 -0.131459,-1.859437z" stroke-width="1.5" fill="#00ffff"/>
  <path id="svg_3" d="m403.177261,144.018959c1.194926,-0.361694 2.175033,-0.698509 0.318832,-0.708367c-1.63929,0.181697 -5.879986,-1.153839 -2.481243,-1.810286c2.126299,-0.684665 6.965284,0.896755 6.991077,-1.80829c-0.384649,-1.695236 -6.626529,-0.371608 -4.573153,-2.645143c2.261416,-0.762578 6.74562,1.034154 7.504227,-1.325563c-0.695408,-2.288026 -5.04499,-0.827818 -7.231201,-1.46015c-2.119359,0.360519 -2.677492,-1.937831 -0.298884,-1.590923c5.498687,-0.244651 11.035728,0.114403 16.515472,-0.384868c0.885163,-0.404347 1.539476,-2.89167 0.422436,-3.05917c-7.982296,-0.136405 -15.978699,-0.011029 -23.94836,-0.417899c-2.863236,-0.024524 -0.675566,-2.545934 1.440203,-1.953789c2.015391,-0.544271 2.814096,-1.97139 4.29326,-3.380559c0.755875,-3.080173 -2.87694,-1.936951 -4.360557,-1.035621c-1.656673,0.895697 -4.506213,2.754912 -6.017867,3.730928c-1.325117,0.790211 -4.378089,1.667075 -6.235242,2.726341c-1.587428,0.465244 -3.324552,0.23362 -4.883698,0.317163c0,4.173291 0,8.346522 0,12.519812c4.411083,1.584002 9.052767,2.97539 13.943044,2.816222c2.864694,-0.00962 5.811671,0.078735 8.601652,-0.529838l0.000002,-0.000001zm-18.173866,1.338529c-2.251794,-0.71353 -4.499502,-1.436154 -6.730894,-2.192161c0.106784,-5.211553 0.213566,-10.423164 0.320343,-15.634717c1.781562,-0.055796 4.425105,0.672989 5.69496,-0.400122c3.414072,-0.903676 5.630665,-2.902407 8.623581,-4.402568c2.10621,-1.364872 3.788552,-1.830702 5.963983,-2.865797c1.652337,-0.630162 2.546997,-0.308364 4.407627,-0.033618c0.811505,1.095171 1.818925,1.661209 1.296166,3.747532c-1.090814,0.452514 -2.506399,3.493906 -0.362768,3.518077c5.967885,0.471638 12.031862,-0.191261 17.952802,0.633036c1.474362,1.64613 1.755539,5.34432 -0.942896,6.388216c-2.582349,0.615727 -5.305067,0.310298 -7.958188,0.384338c-0.000161,1.557306 0.312037,3.544653 -1.783903,4.326943c-1.547627,1.664671 -1.65646,4.110164 -4.150254,5.328246c-2.097356,1.772385 -5.082996,2.319887 -7.995199,2.261451c-4.775297,0.053388 -9.801728,0.43092 -14.33536,-1.058741l0,-0.000118l-0.000002,0.000002z" stroke-width="1.5" stroke="#007fff" fill="#005fbf"/>
 </g>
</svg>