<svg width="100" height="100" xmlns="http://www.w3.org/2000/svg">
 <!-- Created with Method Draw - http://github.com/duopixel/Method-Draw/ -->
 <g>
  <title>background</title>
  <rect fill="none" id="canvas_background" height="102" width="102" y="-1" x="-1"/>
  <g display="none" overflow="visible" y="0" x="0" height="100%" width="100%" id="canvasGrid">
   <rect fill="url(#gridpattern)" stroke-width="0" y="0" x="0" height="100%" width="100%"/>
  </g>
 </g>
 <g>
  <title>Layer 1</title>
  <text font-weight="bold" xml:space="preserve" text-anchor="start" font-family="Oswald, sans-serif" font-size="24" id="svg_1" y="35.25" x="15.25" stroke-width="0" stroke="#000" fill="#56ffff">畅行</text>
  <text xml:space="preserve" text-anchor="start" font-family="Oswald, sans-serif" font-size="10" id="svg_2" y="55.36328" x="32.874995" stroke-width="0" stroke="#000" fill="#000000">让出行更便捷</text>
  <path stroke="#000" transform="rotate(1.3047908544540405 23.589370727539002,60.56246185302744) " id="svg_3" d="m19.436198,59.624319l3.172764,0l0.980409,-3.035922l0.980409,3.035922l3.172764,0l-2.566816,1.876281l0.980459,3.035922l-2.566817,-1.876333l-2.566816,1.876333l0.98046,-3.035922l-2.566816,-1.876281z" stroke-width="0.5" fill="#ff0000"/>
  <path stroke="#000" id="svg_4" d="m35.64062,67.048075l4.77461,0l1.475391,-4.488111l1.475392,4.488111l4.774609,0l-3.862734,2.773773l1.475468,4.488111l-3.862735,-2.773849l-3.862734,2.773849l1.475468,-4.488111l-3.862735,-2.773773z" stroke-width="0.5" fill="#ff0000"/>
  <path stroke="#000" id="svg_5" d="m55.071871,71.383705l5.729532,0l1.77047,-5.824994l1.770471,5.824994l5.729531,0l-4.635281,3.600003l1.770561,5.824994l-4.635283,-3.600101l-4.635282,3.600101l1.770562,-5.824994l-4.635282,-3.600003z" stroke-width="0.5" fill="#ff0000"/>
  <path stroke="#000" id="svg_6" d="m75.484375,78.179259l7.925851,0l2.449149,-8.116797l2.44915,8.116797l7.92585,0l-6.412137,5.016399l2.449276,8.116797l-6.41214,-5.016536l-6.412138,5.016536l2.449277,-8.116797l-6.412139,-5.016399z" stroke-width="0.5" fill="#ff0000"/>
  <path stroke="#000" id="svg_7" d="m9.261867,46.833012l2.482797,0l0.767203,-2.291802l0.767204,2.291802l2.482797,0l-2.008621,1.416396l0.767243,2.291802l-2.008622,-1.416434l-2.008622,1.416434l0.767243,-2.291802l-2.008622,-1.416396z" stroke-width="0.5" fill="#ff0000"/>
  <path id="svg_11" d="m86.143591,11.349548c0.186375,-0.154368 0.243721,-0.253164 0.243721,-0.253164l0.014337,0c0,0 -0.007168,0.135844 -0.007168,0.271688l0,2.814134l-1.117652,0l0,0.530512l2.909122,0l0,-0.530512l-1.103316,0l0,-3.826276l-0.63021,0l-1.21084,1.012142l0.429499,0.382833l0.472508,-0.401358zm2.631352,3.03025c0,0.105485 0.014337,0.216116 0.035841,0.332921l3.25977,0l0,-0.530512l-2.507102,0c0.013739,-0.993617 2.428251,-1.215393 2.428251,-2.647931c0,-0.752803 -0.665454,-1.253471 -1.597329,-1.253471c-1.139157,0 -1.597926,0.8269 -1.597926,0.8269l0.522686,0.302047c0,0 0.358413,-0.555726 1.025062,-0.555726c0.529854,0 0.909175,0.289698 0.909175,0.721929c0,1.027064 -2.478429,1.249354 -2.478429,2.803843zm-2.486792,-9.057818l-1.194711,0l0,1.716061l1.194711,0l0,-1.716061zm6.570912,0.599978l0,1.631158l-2.389423,0l0,-1.631158l-3.584134,0l0,1.630129l-2.388228,0l0,-1.630129l-1.445003,0l0,11.150023l11.249999,0l0,-11.150023l-1.443211,0zm0.846453,10.634948l-10.055288,0l0,-7.675192l10.055288,0l0,7.675192zm-1.443809,-11.234926l-1.194711,0l0,1.716061l1.194711,0l0,-1.716061z" stroke-opacity="null" stroke-width="0.5" stroke="#000" fill="#ff0000"/>
  <path id="svg_13" d="m71.571682,6.973159l-1.807593,0l-1.478707,1.71721l0,2.099142l4.463695,5.183649l3.286301,-3.816682l-4.463695,-5.183319zm-2.208112,1.991528c-0.175955,-0.204335 -0.175955,-0.535431 0,-0.739437c0.175955,-0.204335 0.461066,-0.204335 0.637021,0c0.17624,0.204666 0.175955,0.535101 0,0.739767c-0.175955,0.204335 -0.461066,0.204335 -0.637021,-0.00033z" stroke-opacity="null" stroke-width="0.5" stroke="#000" fill="#007fff"/>
  <path stroke="#000" id="svg_14" d="m82.000951,40.402676c-2.882787,-0.405257 -5.462295,-2.2062 -6.689842,-4.664004c-1.480883,-2.906949 -0.940659,-6.609619 1.41456,-8.988024c2.303264,-2.5081 6.298349,-3.410759 9.615259,-2.298765c3.464204,1.099998 5.967366,4.372571 5.89439,7.783414c0.071908,3.347502 -2.332782,6.559444 -5.700922,7.716064c-1.439526,0.523952 -3.008678,0.628892 -4.533443,0.451315l-0.000002,-0.000001zm0.518842,-5.087325c-0.005308,-0.403523 -0.010616,-0.807047 -0.015925,-1.21057c-1.21851,1.133344 -2.437019,2.266689 -3.65553,3.400034c1.047679,0.778412 2.328486,1.260489 3.65553,1.421496c0.017532,-1.203585 0.031908,-2.407268 0.015925,-3.61096zm2.879948,3.380135c0.862184,-0.236636 1.690073,-0.613493 2.389221,-1.140336c-0.553325,-0.74444 -1.346452,-1.338998 -2.015694,-2.005127c-0.527714,-0.490431 -1.05543,-0.98086 -1.583144,-1.471291c0,1.616963 0,3.233925 0,4.850887c0.408931,-0.050572 0.812885,-0.128548 1.209617,-0.234133l0,0.000001zm-2.86629,-9.95837c0,-1.06538 0,-2.13076 0,-3.19614c-3.07809,0.30856 -5.807056,2.623261 -6.285295,5.487418c-0.351491,1.882594 0.131588,3.914773 1.445791,5.403196c1.613168,-1.499444 3.226336,-2.998889 4.839504,-4.498332c0,-1.06538 0,-2.130761 0,-3.196141l0,-0.000001zm6.886633,7.190265c1.777541,-2.46639 1.518491,-6.03332 -0.691118,-8.201001c-1.167013,-1.202495 -2.802261,-2.010545 -4.538843,-2.185405c0,2.130427 0,4.260854 0,6.391281c1.579898,1.448107 3.108948,2.946392 4.742599,4.342129c0.228977,0.25202 0.343881,-0.262356 0.487362,-0.347004z" stroke-opacity="null" stroke-width="0.5" fill="#ff56ff"/>
 </g>
</svg>